<svg width="46" height="46" viewBox="0 0 46 46" fill="none" xmlns="http://www.w3.org/2000/svg">
<path fill-rule="evenodd" clip-rule="evenodd" d="M46 23C46 35.7017 35.7017 46 23 46C10.2982 46 0 35.7017 0 23C0 10.2982 10.2982 0 23 0C35.7017 0 46 10.2982 46 23ZM23.8242 16.9797C21.5874 17.9093 17.1158 19.8356 10.4113 22.7566C9.32267 23.1898 8.7515 23.6133 8.69975 24.0273C8.61158 24.7288 9.48942 25.0048 10.6816 25.3786C10.8445 25.4303 11.0132 25.4821 11.1857 25.5396C12.3606 25.921 13.9399 26.3676 14.7603 26.3848C15.5058 26.4002 16.3377 26.0935 17.2558 25.4648C23.5194 21.2348 26.7528 19.0977 26.956 19.0517C27.0997 19.0191 27.2991 18.9769 27.4332 19.0977C27.5674 19.2165 27.554 19.4427 27.5406 19.504C27.4524 19.8739 24.0139 23.0728 22.2314 24.7288C21.6756 25.2444 21.2827 25.6105 21.2022 25.6948C21.022 25.8807 20.838 26.059 20.6617 26.2296C19.5692 27.2799 18.7527 28.0696 20.7077 29.3576C21.6468 29.9767 22.3982 30.4884 23.1476 30.9983C23.966 31.556 24.7825 32.1118 25.8405 32.8057C26.1088 32.982 26.3657 33.1641 26.6168 33.3423C27.5693 34.0228 28.4261 34.6322 29.4841 34.5364C30.0974 34.4789 30.7337 33.902 31.0557 32.1789C31.8167 28.1041 33.3155 19.2798 33.6624 15.6419C33.6835 15.3399 33.6707 15.0364 33.6241 14.7372C33.5962 14.4956 33.4785 14.2733 33.2944 14.1143C33.0203 13.8901 32.5948 13.8422 32.4032 13.846C31.5387 13.8613 30.2124 14.3232 23.8242 16.9797Z" fill="#FFE457"/>
</svg>
