<svg width="35" height="24" viewBox="0 0 35 24" fill="none" xmlns="http://www.w3.org/2000/svg">
<g clip-path="url(#clip0_4001_4)">
<path fill-rule="evenodd" clip-rule="evenodd" d="M6.17076 0H9.25672V3.08592H6.17076V0ZM6.17076 5.83091V8.91463H3.08705V15.0865H6.17076V17.8298V20.9154H9.25672V17.8298H24.3448V20.9146H18.5159V24.0005H24.3448V20.9154H27.4308V15.0865H30.5145V8.91463H27.4308H27.4293V5.83091H24.3471V3.08705H21.2612V5.83091H12.3404V3.08705H9.25449V5.83091H6.17076ZM24.3448 11.9983V8.91686H21.2564V11.9983H24.3448ZM12.3415 8.91686V11.9983H9.25672V8.91686H12.3415ZM3.08592 11.9983H0V20.9133H3.08592V11.9983ZM15.0871 24.0005V20.9146H9.25809V24.0005H15.0871ZM27.4308 0H24.3448V3.08592H27.4308V0ZM33.6049 11.9983H30.519V20.9133H33.6049V11.9983Z" fill="#FFE457"/>
</g>
<defs>
<clipPath id="clip0_4001_4">
<rect width="34.2857" height="24" fill="white"/>
</clipPath>
</defs>
</svg>
